<svg width="75" height="62" viewBox="0 0 75 62" fill="none" xmlns="http://www.w3.org/2000/svg">
<path d="M22.114 2.53449C29.4601 0.466393 37.9223 -0.125302 45.8591 1.07453C53.7854 2.27285 61.3165 5.28005 66.6599 10.5384C72.0509 15.8436 75.0915 23.3231 74.1775 33.139C73.5493 39.8851 70.6325 44.7235 66.3835 48.0482C62.1827 51.3352 56.7749 53.0718 51.2214 53.8636C40.5034 55.3916 28.7644 53.4674 22.6765 51.7034L3.86889 61.9818L1.94701 59.7689L9.07983 50.2005C4.8976 45.5824 1.88597 39.4101 0.779044 33.0198C-0.405906 26.1786 0.574469 18.9584 4.80932 13.1204C8.39838 8.17277 14.8027 4.59281 22.114 2.53449ZM45.4099 4.04035C37.9005 2.90519 29.8691 3.46803 22.9275 5.42219C15.9511 7.38621 10.2729 10.6963 7.23705 14.8812C3.58671 19.9133 2.65301 26.2611 3.7351 32.5081C4.81832 38.7616 7.90486 44.784 12.1023 49.0335L13.0085 49.9515L8.45776 56.054L22.3406 48.4681L22.9451 48.6546C28.5293 50.3712 40.2555 52.3968 50.7976 50.8939C56.0598 50.1437 60.898 48.5316 64.5349 45.6859C68.1239 42.8776 70.6373 38.7976 71.1902 32.8607C72.0259 23.8854 69.2647 17.3114 64.5554 12.6771C59.7984 7.9958 52.9299 5.17717 45.4099 4.04035Z" fill="#2DD4BF"/>
<path d="M28.1965 26.4387C28.1967 23.4106 30.3203 20.0305 33.26 18.2121C34.7727 17.2765 36.5796 16.7008 38.5325 16.8264C40.4984 16.9529 42.4883 17.7822 44.3596 19.4494C45.8162 20.7472 46.5509 22.3019 46.6799 23.9436C46.8055 25.5422 46.3499 27.1038 45.6506 28.4778C44.2685 31.1935 41.7411 33.5647 39.5862 34.7043C38.8539 35.0915 37.9462 34.8115 37.5588 34.0793C37.1715 33.347 37.4515 32.4393 38.1838 32.052C39.8201 31.1865 41.8893 29.2533 42.9768 27.1164C43.5122 26.0644 43.759 25.0623 43.6897 24.1789C43.6237 23.3384 43.2657 22.4916 42.3645 21.6887C40.9288 20.4096 39.5564 19.8978 38.3401 19.8196C37.1109 19.7405 35.9149 20.097 34.8381 20.7629C32.5989 22.1479 31.1967 24.6486 31.1965 26.4387C31.1965 27.2671 30.525 27.9387 29.6965 27.9387C28.8681 27.9387 28.1965 27.2671 28.1965 26.4387Z" fill="#2DD4BF"/>
<path d="M35.8191 41.9699V40.1047C35.8191 39.2763 36.4907 38.6047 37.3191 38.6047C38.1475 38.6047 38.8191 39.2763 38.8191 40.1047V41.9699C38.8188 42.7982 38.1474 43.4699 37.3191 43.4699C36.4908 43.4699 35.8193 42.7982 35.8191 41.9699Z" fill="#2DD4BF"/>
</svg>
